<?xml version="1.0" encoding="UTF-8"?>
<!DOCTYPE svg PUBLIC "-//W3C//DTD SVG 1.1//EN" "http://www.w3.org/Graphics/SVG/1.1/DTD/svg11.dtd">
<!-- Creator: CorelDRAW -->
<svg xmlns="http://www.w3.org/2000/svg" xml:space="preserve" width="268px" height="90px" style="shape-rendering:geometricPrecision; text-rendering:geometricPrecision; image-rendering:optimizeQuality; fill-rule:evenodd; clip-rule:evenodd"
viewBox="0 0 39.5299 13.299"
 xmlns:xlink="http://www.w3.org/1999/xlink">
 <defs>
  <style type="text/css">
   <![CDATA[
    .fil2 {fill:#FECC00}
    .fil1 {fill:#2B2A29;fill-rule:nonzero}
    .fil0 {fill:#0090AA;fill-rule:nonzero}
   ]]>
  </style>
 </defs>
 <g id="Layer_x0020_1">
  <metadata id="CorelCorpID_0Corel-Layer"/>
  <g id="_83922488">
   <path id="_82475144" class="fil0" d="M39.5299 11.3841c-0.0262488,0.295127 -0.0916983,0.557443 -0.192376,0.789192 -0.10275,0.229505 -0.240384,0.430688 -0.410829,0.601133 -0.170617,0.170445 -0.367311,0.297199 -0.588009,0.382508 -0.222942,0.0853087 -0.467817,0.128999 -0.736695,0.128999 -0.380436,0 -0.72357,-0.0590599 -1.03182,-0.179252 -0.308251,-0.11812 -0.581446,-0.299444 -0.817513,-0.542246 -0.242629,-0.242456 -0.423953,-0.522387 -0.542073,-0.837027 -0.120192,-0.314813 -0.179252,-0.66451 -0.179252,-1.05151 0,-0.82632 0.262316,-1.5214 0.786947,-2.0854 0.262316,-0.288565 0.555198,-0.5027 0.876573,-0.642579 0.321203,-0.139879 0.671072,-0.209991 1.05134,-0.209991 0.242629,0 0.465744,0.0284938 0.669,0.0875537 0.203256,0.0568149 0.386825,0.142124 0.550708,0.253509 0.164055,0.11812 0.286492,0.249191 0.365066,0.391315 0.0809915,0.144196 0.120365,0.297372 0.120365,0.461254 0,0.0787465 -0.0153694,0.150758 -0.0481804,0.218625 -0.0328111,0.0654494 -0.0830638,0.128827 -0.148686,0.187886 -0.0654494,0.0590599 -0.133316,0.104995 -0.205501,0.135561 -0.0720116,0.0328111 -0.148513,0.0481804 -0.22726,0.0481804 -0.0787465,0 -0.153003,-0.0131244 -0.222942,-0.0416182 -0.0699394,-0.0262488 -0.131244,-0.0699394 -0.183569,-0.128999 -0.0590599,-0.0590599 -0.10275,-0.124509 -0.128999,-0.196694 -0.0284938,-0.0721843 -0.0416182,-0.150758 -0.0416182,-0.236067 0,-0.091871 0.0240039,-0.188059 0.0699394,-0.28632 0.0481804,-0.0984332 0.120365,-0.198939 0.218625,-0.303934 0.0196866,-0.0196866 0.035056,-0.0371283 0.0481804,-0.0502527 0.0108795,-0.0131244 0.0174417,-0.0217589 0.0174417,-0.0283211 0,-0.0393733 -0.0219316,-0.0787465 -0.0676944,-0.11812 -0.0438632,-0.0393733 -0.109313,-0.0787465 -0.194621,-0.11812 -0.0853087,-0.0457628 -0.177007,-0.0785738 -0.273195,-0.100505 -0.0984332,-0.0196866 -0.198939,-0.0305661 -0.303934,-0.0305661 -0.117947,0 -0.231577,0.00880718 -0.343135,0.0283211 -0.109313,0.0196866 -0.214308,0.0504254 -0.312568,0.0897987 -0.104995,0.0457628 -0.196866,0.0982605 -0.277685,0.15732 -0.0830638,0.0590599 -0.155075,0.124509 -0.220698,0.196694 -0.0721843,0.0853087 -0.133316,0.177007 -0.185814,0.277685 -0.0524977,0.0982605 -0.0961882,0.207573 -0.128999,0.325693 -0.0262488,0.117947 -0.0481804,0.268878 -0.0656221,0.454692 -0.0174417,0.183569 -0.0260762,0.404267 -0.0260762,0.66002l0 0.406684 0 0.432761c0,0.236067 0.00656221,0.445885 0.0195139,0.625137 0.0131244,0.179252 0.0328111,0.325693 0.0590599,0.43725 0.0262488,0.117947 0.0633771,0.22726 0.109313,0.325693 0.0459355,0.100505 0.100505,0.192376 0.166128,0.277685 0.0656221,0.0785738 0.135561,0.146268 0.209818,0.205328 0.0744293,0.0590599 0.15732,0.109313 0.249191,0.148686 0.170617,0.0787465 0.380436,0.11812 0.629627,0.11812 0.249191,0 0.472134,-0.035056 0.666582,-0.10724 0.196866,-0.0699394 0.362994,-0.174762 0.500628,-0.312568 0.144196,-0.144196 0.260071,-0.319131 0.34538,-0.524631 0.087381,-0.205501 0.146441,-0.445885 0.179252,-0.721325l0.196694 0z"/>
   <path id="_82475072" class="fil0" d="M32.6313 8.09207l-0.747574 0 0 -0.183569 0.629454 0c0.137806,0 0.266633,-0.00431724 0.384753,-0.0108795 0.120192,-0.00656221 0.23175,-0.0153694 0.336572,-0.0284938 0.0984332,-0.0131244 0.190304,-0.0305661 0.273368,-0.0502527 0.0851361,-0.0196866 0.159393,-0.0414455 0.225015,-0.0678671l0 5.19382 0.721325 0 0 0.183569 -2.57049 0 0 -0.183569 0.747574 0 0 -4.85275z"/>
   <path id="_82475000" class="fil0" d="M29.89 12.2104c0,0.144196 0.0110521,0.268878 0.0307388,0.371628 0.0217589,0.104823 0.05457,0.185814 0.100505,0.244701 0.0393733,0.0590599 0.0961882,0.104995 0.1682,0.135561 0.0721843,0.0328111 0.159565,0.0481804 0.264561,0.0481804 0.104995,0 0.205501,-0.0153694 0.301689,-0.0481804 0.0961882,-0.0305661 0.183569,-0.0765016 0.262316,-0.135561 0.0853087,-0.0654494 0.15732,-0.144196 0.218625,-0.233822 0.0590599,-0.0916983 0.10914,-0.192376 0.148686,-0.303761l0.196694 0c-0.0524977,0.15732 -0.11812,0.297199 -0.198939,0.421881 -0.0830638,0.122264 -0.181497,0.22726 -0.299444,0.312568 -0.111558,0.0916983 -0.23624,0.15732 -0.373873,0.198766 -0.137634,0.0438632 -0.288565,0.0635498 -0.452447,0.0635498 -0.104995,0 -0.205501,-0.00656221 -0.303934,-0.0240039 -0.0982605,-0.0153694 -0.194449,-0.0416182 -0.28632,-0.0809915 -0.0982605,-0.0328111 -0.187886,-0.0721843 -0.266633,-0.120192 -0.0809915,-0.0459355 -0.153003,-0.10275 -0.218625,-0.168373 -0.0524977,-0.0524977 -0.0961882,-0.104823 -0.131072,-0.16181 -0.035056,-0.05457 -0.0656221,-0.11363 -0.091871,-0.179252 -0.0196866,-0.0588872 -0.035056,-0.133144 -0.0481804,-0.225015 -0.0108795,-0.089626 -0.0174417,-0.194621 -0.0174417,-0.312568l0 -0.262316 0 -3.6593 -0.904894 0 0 -0.183569c0.255754,0 0.485258,-0.035056 0.686269,-0.107068 0.198939,-0.070112 0.369556,-0.174935 0.50719,-0.312568 0.137634,-0.137806 0.253509,-0.317058 0.34538,-0.540001 0.091871,-0.220698 0.159565,-0.483013 0.205501,-0.784702l0.15732 0 0 1.74434 1.45577 0 0 0.183569 -1.45577 0 0 4.11831z"/>
   <path id="_82474904" class="fil0" d="M27.6998 11.3841c-0.0262488,0.295127 -0.091871,0.557443 -0.192376,0.789192 -0.10275,0.229505 -0.240384,0.430688 -0.410829,0.601133 -0.170617,0.170445 -0.367311,0.297199 -0.588009,0.382508 -0.223115,0.0853087 -0.467817,0.128999 -0.736695,0.128999 -0.380436,0 -0.72357,-0.0590599 -1.03182,-0.179252 -0.308251,-0.11812 -0.581446,-0.299444 -0.817513,-0.542246 -0.242629,-0.242456 -0.424126,-0.522387 -0.542073,-0.837027 -0.120192,-0.314813 -0.179252,-0.66451 -0.179252,-1.05151 0,-0.82632 0.262316,-1.5214 0.786947,-2.0854 0.262316,-0.288565 0.555198,-0.5027 0.876573,-0.642579 0.321203,-0.139879 0.671072,-0.209991 1.05134,-0.209991 0.242629,0 0.465572,0.0284938 0.669,0.0875537 0.203256,0.0568149 0.386825,0.142124 0.550708,0.253509 0.164055,0.11812 0.28632,0.249191 0.365066,0.391315 0.0809915,0.144196 0.120192,0.297372 0.120192,0.461254 0,0.0787465 -0.0151967,0.150758 -0.0480078,0.218625 -0.0328111,0.0654494 -0.0830638,0.128827 -0.148686,0.187886 -0.0656221,0.0590599 -0.133316,0.104995 -0.205501,0.135561 -0.0720116,0.0328111 -0.148513,0.0481804 -0.22726,0.0481804 -0.0787465,0 -0.153003,-0.0131244 -0.222942,-0.0416182 -0.0699394,-0.0262488 -0.131244,-0.0699394 -0.183569,-0.128999 -0.0590599,-0.0590599 -0.10275,-0.124509 -0.128999,-0.196694 -0.0284938,-0.0721843 -0.0416182,-0.150758 -0.0416182,-0.236067 0,-0.091871 0.0240039,-0.188059 0.0699394,-0.28632 0.0481804,-0.0984332 0.120365,-0.198939 0.218625,-0.303934 0.0196866,-0.0196866 0.0348833,-0.0371283 0.0480078,-0.0502527 0.0110521,-0.0131244 0.0176144,-0.0217589 0.0176144,-0.0283211 0,-0.0393733 -0.0219316,-0.0787465 -0.0676944,-0.11812 -0.0438632,-0.0393733 -0.109313,-0.0787465 -0.194621,-0.11812 -0.0853087,-0.0457628 -0.177007,-0.0785738 -0.273195,-0.100505 -0.0984332,-0.0196866 -0.198939,-0.0305661 -0.303934,-0.0305661 -0.117947,0 -0.23175,0.00880718 -0.343135,0.0283211 -0.109313,0.0196866 -0.214308,0.0504254 -0.312568,0.0897987 -0.104995,0.0457628 -0.196866,0.0982605 -0.277685,0.15732 -0.0830638,0.0590599 -0.155248,0.124509 -0.220698,0.196694 -0.0721843,0.0853087 -0.133489,0.177007 -0.185814,0.277685 -0.0524977,0.0982605 -0.0961882,0.207573 -0.128999,0.325693 -0.0262488,0.117947 -0.0481804,0.268878 -0.0656221,0.454692 -0.0174417,0.183569 -0.0262488,0.404267 -0.0262488,0.66002l0 0.406684 0 0.432761c0,0.236067 0.00656221,0.445885 0.0196866,0.625137 0.0131244,0.179252 0.0328111,0.325693 0.0590599,0.43725 0.0262488,0.117947 0.0633771,0.22726 0.109313,0.325693 0.0459355,0.100505 0.100505,0.192376 0.166128,0.277685 0.0656221,0.0785738 0.135561,0.146268 0.209818,0.205328 0.0742566,0.0590599 0.15732,0.109313 0.249191,0.148686 0.170445,0.0787465 0.380436,0.11812 0.629627,0.11812 0.249019,0 0.472134,-0.035056 0.666582,-0.10724 0.196694,-0.0699394 0.362821,-0.174762 0.500628,-0.312568 0.144196,-0.144196 0.260071,-0.319131 0.34538,-0.524631 0.087381,-0.205501 0.146441,-0.445885 0.179252,-0.721325l0.196694 0z"/>
   <path id="_340439000" class="fil0" d="M19.1748 9.9939l0 1.5214c0,0.268878 0.0262488,0.504945 0.0785738,0.703883 0.0524977,0.201011 0.131244,0.365066 0.23624,0.489575 0.104823,0.117947 0.240384,0.209818 0.404439,0.271123 0.165955,0.0633771 0.362821,0.0961882 0.592326,0.0961882 0.229505,0 0.44364,-0.037301 0.640506,-0.109313 0.196694,-0.0744293 0.375946,-0.185814 0.539828,-0.336745 0.170445,-0.150758 0.314813,-0.33001 0.432761,-0.539828 0.11812,-0.207746 0.209991,-0.443813 0.27544,-0.706128l0.196866 0c-0.0787465,0.301689 -0.183742,0.570567 -0.317058,0.806634 -0.131072,0.236067 -0.292882,0.439323 -0.483013,0.60994 -0.183742,0.163883 -0.386998,0.288565 -0.60994,0.371628 -0.222942,0.0851361 -0.465572,0.126754 -0.727887,0.126754 -0.3345,0 -0.644824,-0.0656221 -0.933388,-0.198939 -0.288565,-0.131244 -0.555198,-0.332255 -0.797827,-0.601133 -0.242629,-0.262316 -0.424126,-0.557443 -0.542073,-0.883135 -0.120365,-0.323621 -0.179252,-0.677635 -0.179252,-1.05807 0,-0.399949 0.05457,-0.767088 0.166128,-1.10159 0.109313,-0.3345 0.273195,-0.636189 0.489575,-0.905067 0.21638,-0.268878 0.456937,-0.469889 0.71908,-0.601133 0.264561,-0.133316 0.553125,-0.198939 0.867939,-0.198939 0.301516,0 0.583519,0.0524977 0.843762,0.157493 0.257826,0.104823 0.493893,0.262316 0.703883,0.472134 0.432761,0.419636 0.668827,0.957392 0.708201,1.61327l-3.30511 0zm0 -0.183569l2.01978 0 0 -0.616502c0,-0.21638 -0.0196866,-0.404439 -0.0611322,-0.56176 -0.0393733,-0.159565 -0.10275,-0.29081 -0.188059,-0.395632 -0.0787465,-0.0984332 -0.183569,-0.17269 -0.312568,-0.225187 -0.131244,-0.0502527 -0.284247,-0.0765016 -0.461254,-0.0765016 -0.327938,0 -0.577129,0.117947 -0.747574,0.354014 -0.0853087,0.11812 -0.148686,0.268878 -0.188059,0.450375 -0.0414455,0.183569 -0.0611322,0.395632 -0.0611322,0.638261l0 0.432933z"/>
   <path id="_340438904" class="fil0" d="M14.9254 13.1284l0 -0.183569 0.747574 0 0 -8.31518 -0.747574 0 0 -0.183742 0.629454 0c0.124682,0 0.240557,-0.00638952 0.347624,-0.0195139 0.107068,-0.0131244 0.209818,-0.0328111 0.308251,-0.0590599 0.0982605,-0.0262488 0.194449,-0.0590599 0.28632,-0.0984332 0.0939432,-0.0392006 0.185814,-0.0851361 0.277512,-0.137634l0 8.81357 0.721498 0 0 0.183569 -2.57066 0z"/>
   <path id="_340438784" class="fil1" d="M11.7023 7.93475l-0.0141606 -0.00017269c-0.884344,-0.00328111 -1.35872,0.302898 -1.64556,0.540692 0.0828911,-0.155248 0.273886,-0.445712 0.908866,-0.623755 0.23175,-0.0676944 0.487503,-0.100505 0.762943,-0.100505 0.052325,0 0.104305,0.00155421 0.155766,0.00431724 -0.0580238,0.0578511 -0.113803,0.117602 -0.167854,0.179425z"/>
   <circle id="_340438688" class="fil2" cx="12.1252" cy="2.21796" r="2.21796"/>
   <path id="_340438640" class="fil1" d="M1.19346 11.2792c0,0.321203 0.0262488,0.598888 0.0765016,0.83271 0.0481804,0.233995 0.120365,0.419809 0.212063,0.557443 0.196694,0.288565 0.511507,0.432933 0.944268,0.432933 0.190304,0 0.367311,-0.0262488 0.533439,-0.0809915 0.163883,-0.0524977 0.319131,-0.135561 0.463327,-0.246946 0.144369,-0.111558 0.27544,-0.249191 0.391315,-0.411002 0.11812,-0.163883 0.218625,-0.349697 0.303934,-0.559515l0 -2.34772c-0.0853087,-0.229505 -0.183742,-0.432761 -0.297372,-0.60994 -0.111385,-0.177007 -0.240384,-0.327938 -0.384753,-0.452447 -0.144196,-0.131072 -0.297199,-0.22726 -0.461254,-0.288565 -0.163883,-0.0611322 -0.338645,-0.0916983 -0.522387,-0.0916983 -0.419636,0 -0.73445,0.144196 -0.944268,0.432761 -0.104995,0.150758 -0.183569,0.3345 -0.236067,0.552953 -0.0524977,0.22087 -0.0787465,0.476624 -0.0787465,0.771578l0 1.50845zm2.9378 0.996765c-0.111385,0.170445 -0.229332,0.321203 -0.354014,0.450202 -0.124682,0.131244 -0.255754,0.238312 -0.393387,0.323621 -0.131244,0.0851361 -0.271123,0.148686 -0.422054,0.187886 -0.148513,0.0416182 -0.306006,0.0613049 -0.469889,0.0613049 -0.367311,0 -0.701638,-0.0656221 -1.00108,-0.194621 -0.301689,-0.131072 -0.56625,-0.323448 -0.795754,-0.579201 -0.229505,-0.255754 -0.402194,-0.55088 -0.520314,-0.88538 -0.115702,-0.3345 -0.174762,-0.708201 -0.174762,-1.12127 0,-0.747747 0.236067,-1.39033 0.708201,-1.92808 0.236067,-0.27544 0.494065,-0.478696 0.773823,-0.614257 0.279757,-0.133316 0.577129,-0.198939 0.891943,-0.198939 0.380263,0 0.721325,0.104995 1.02301,0.314813 0.150758,0.104995 0.28632,0.229505 0.404267,0.376118 0.120192,0.148513 0.225187,0.318958 0.317058,0.515824l0 -4.34125 -0.747574 0 0 -0.183742 0.629454 0c0.11812,0 0.229505,-0.00638952 0.336572,-0.0195139 0.104995,-0.0131244 0.207746,-0.0328111 0.306179,-0.0590599 0.0982605,-0.0262488 0.196694,-0.0590599 0.292882,-0.0984332 0.0982605,-0.0392006 0.192376,-0.0851361 0.284075,-0.137634l0 8.81357 0.760698 0 0 0.183569 -1.84933 0 0 -0.865521zm2.85922 -4.1708l-0.747574 0 0 -0.183569 0.629627 0c0.137634,0 0.266633,-0.00431724 0.384753,-0.0108795 0.120192,-0.00656221 0.231577,-0.0153694 0.336572,-0.0284938 0.0982605,-0.0131244 0.190131,-0.0305661 0.273195,-0.0502527 0.0853087,-0.0196866 0.159565,-0.0414455 0.225187,-0.0678671l0 5.19382 0.721325 0 0 0.183569 -2.57066 0 0 -0.183569 0.747574 0 0 -4.85275zm7.90867 4.47232c-0.0984332,0.11812 -0.192376,0.223115 -0.284247,0.310496 -0.0916983,0.089626 -0.181324,0.16181 -0.266633,0.214308 -0.0916983,0.052325 -0.183569,0.0916983 -0.277512,0.117947 -0.0961882,0.0262488 -0.194621,0.0393733 -0.299617,0.0393733 -0.137634,0 -0.262316,-0.0196866 -0.375946,-0.0568149 -0.111385,-0.0393733 -0.214135,-0.0941159 -0.306006,-0.166128 -0.0982605,-0.0721843 -0.177007,-0.157493 -0.238312,-0.257998 -0.0588872,-0.0984332 -0.10275,-0.214308 -0.128827,-0.34538 -0.0853087,0.144196 -0.188059,0.268878 -0.306179,0.375946 -0.120192,0.104995 -0.257826,0.194621 -0.415319,0.266806 -0.150758,0.0785738 -0.321203,0.135389 -0.511507,0.170445 -0.190131,0.0348833 -0.399949,0.0524977 -0.629454,0.0524977 -0.21638,0 -0.415319,-0.0307388 -0.596816,-0.091871 -0.181324,-0.0611322 -0.34089,-0.15732 -0.478696,-0.288565 -0.144196,-0.124509 -0.251264,-0.264561 -0.323448,-0.421881 -0.0721843,-0.155248 -0.109313,-0.325693 -0.109313,-0.509262 0,-0.282002 0.0699394,-0.531194 0.209818,-0.749819 0.139879,-0.21638 0.354187,-0.404439 0.642751,-0.56176 0.28183,-0.150758 0.622892,-0.264561 1.02284,-0.343135 0.400122,-0.0765016 0.859132,-0.115875 1.3772,-0.115875l0.0656221 0 0 -1.3247c0,-0.170445 -0.0196866,-0.314813 -0.0590599,-0.435006 -0.0393733,-0.117947 -0.0984332,-0.214135 -0.177007,-0.28632 -0.0787465,-0.0721843 -0.183742,-0.126754 -0.312568,-0.166128 -0.131244,-0.0371283 -0.284247,-0.0568149 -0.461254,-0.0568149 -0.150931,0 -0.29081,0.0174417 -0.421881,0.0524977 -0.131244,0.0348833 -0.253509,0.0916983 -0.365066,0.170445 -0.111558,0.0721843 -0.196694,0.142124 -0.253681,0.209818 -0.0588872,0.0676944 -0.087381,0.137634 -0.087381,0.209818 0,0.00656221 0.0153694,0.0262488 0.0481804,0.0568149 0.0305661,0.0328111 0.0765016,0.0744293 0.135389,0.126927 0.0590599,0.0588872 0.104995,0.120192 0.135561,0.185814 0.0328111,0.0654494 0.0481804,0.135389 0.0481804,0.207573 0,0.091871 -0.0131244,0.177007 -0.0393733,0.251436 -0.0262488,0.0765016 -0.0656221,0.141951 -0.11812,0.194449 -0.0457628,0.0590599 -0.104823,0.10275 -0.17269,0.128999 -0.0699394,0.0283211 -0.148513,0.0414455 -0.233822,0.0414455 -0.091871,0 -0.17269,-0.0131244 -0.244874,-0.0414455 -0.0720116,-0.0262488 -0.135561,-0.0699394 -0.187886,-0.128999 -0.0590599,-0.0524977 -0.10275,-0.117947 -0.128999,-0.194449 -0.0284938,-0.0744293 -0.0416182,-0.159565 -0.0416182,-0.251436 0,-0.196694 0.0459355,-0.378191 0.139879,-0.542073 0.091871,-0.166128 0.233995,-0.317058 0.424126,-0.454692 0.183569,-0.137806 0.39356,-0.240557 0.627382,-0.306006 0.23175,-0.0676944 0.487503,-0.100678 0.762771,-0.100678 0.275613,0 0.537929,0.039546 0.786947,0.11812 0.11812,0.0328111 0.23624,0.0787465 0.351942,0.135561 0.113803,0.0590599 0.225187,0.126754 0.330183,0.205501 0.104823,0.0720116 0.190131,0.146441 0.260071,0.225015 0.0678671,0.0787465 0.120192,0.16181 0.159565,0.247119 0.0787465,0.15732 0.11812,0.419636 0.11812,0.786947l0 2.63611c0,0.137806 0.00656221,0.257998 0.0217589,0.362994 0.0131244,0.102578 0.0371283,0.187886 0.0699394,0.253509 0.0393733,0.0721843 0.0830638,0.124509 0.131244,0.159565 0.0480078,0.0328111 0.104823,0.0502527 0.170445,0.0502527 0.0524977,0 0.104995,-0.0108795 0.155248,-0.0305661 0.052325,-0.0196866 0.100505,-0.0481804 0.146441,-0.087381 0.0524977,-0.0328111 0.109313,-0.0809915 0.168373,-0.146614 0.0611322,-0.0633771 0.126754,-0.141951 0.198766,-0.233822l0.144369 0.131072zm-2.2296 -0.393387l0 -1.77059c-0.0262488,0 -0.0524977,-0.00224497 -0.0787465,-0.00656221 -0.0262488,-0.00431724 -0.0524977,-0.00656221 -0.0787465,-0.00656221 -0.0524977,0 -0.131072,0 -0.236067,0 -0.301689,0 -0.566077,0.0284938 -0.793509,0.0875537 -0.22726,0.0588872 -0.413074,0.148513 -0.557443,0.266633 -0.144196,0.117947 -0.251264,0.266633 -0.323448,0.445885 -0.0721843,0.179252 -0.109313,0.393387 -0.109313,0.642751 0,0.367138 0.0787465,0.655703 0.236067,0.865521 0.0853087,0.0984332 0.183742,0.17269 0.297372,0.225187 0.111385,0.0502527 0.240384,0.0765016 0.384753,0.0765016 0.131072,0 0.255754,-0.0196866 0.375946,-0.0568149 0.117947,-0.0393733 0.233822,-0.0941159 0.34538,-0.166128 0.117947,-0.0721843 0.220698,-0.159565 0.308251,-0.262316 0.087381,-0.10275 0.163883,-0.21638 0.229505,-0.341062z"/>
  </g>
 </g>
</svg>
